# xmcd
#
# Track frame offsets: 
#        150
#        12892
#        25790
#        42075
#        52060
#        63525
#        80972
#        94430
#        109235
#        125542
#        147510
#
# Disc length: 2202 seconds
#
# Revision: 6
# Processed by: cddbd v1.5.2PL0 Copyright (c) Steve Scherf et al.
# Submitted via: ExactAudioCopy v0.99pb4
#
DISCID=a008980b
DTITLE=Old Crow Medicine Show - O.C.M.S.
DYEAR=2004
DGENRE=Folk
TTITLE0=Tell It To Me
TTITLE1=Big Time In The Jungle
TTITLE2=Poor Man
TTITLE3=Tear It Down
TTITLE4=Hard To Love
TTITLE5=CC Rider
TTITLE6=Trials and Troubles
TTITLE7=Hard To Tell
TTITLE8=Take 'Em Away
TTITLE9=We're All In This Together
TTITLE10=Wagon Wheel
EXTD=
EXTT0=
EXTT1=
EXTT2=
EXTT3=
EXTT4=
EXTT5=
EXTT6=
EXTT7=
EXTT8=
EXTT9=
EXTT10=
PLAYORDER=
